<svg width="48" height="48" viewBox="0 0 48 48" fill="none" xmlns="http://www.w3.org/2000/svg">
<path d="M8.44805 31.104C8.44805 31.104 9.31205 31.584 11.232 31.968C11.52 32.064 11.808 32.064 12.096 32.064L32.256 33.6C32.64 33.6 32.928 33.504 33.216 33.312C33.408 33.12 33.792 33.024 34.08 33.024L44.448 33.12C44.544 33.12 44.736 33.024 44.832 32.928L45.024 32.736H45.12C45.408 32.736 45.792 32.544 45.984 32.352C45.984 32.256 46.08 32.256 46.176 32.256C46.272 32.256 46.368 32.16 46.368 32.064L46.464 31.488C39.552 31.392 13.824 30.432 4.89605 28.32C6.24005 29.568 7.48805 30.72 8.44805 31.104ZM46.752 26.976C46.752 26.784 46.56 26.688 46.368 26.592C46.272 26.592 46.08 26.496 46.08 26.304L45.024 24.384C44.928 24.192 44.736 24.096 44.448 24C32.16 23.04 33.6 23.136 32.832 23.136C32.64 20.928 31.872 18.336 31.488 17.184C31.392 16.896 31.584 16.608 31.872 16.512L36.384 15.936C36.48 15.936 36.48 15.936 36.576 15.936L37.152 15.552C37.248 15.456 37.344 15.36 37.344 15.168C37.344 15.072 37.344 15.072 37.248 14.976C37.152 14.88 37.056 14.784 36.96 14.784C25.632 13.536 20.544 14.88 19.104 15.36C18.816 15.456 18.528 15.744 18.432 16.032C18.336 16.224 18.24 16.416 18.048 16.608C16.8 17.472 12.096 20.928 9.88805 22.56L1.34405 22.368C1.05605 22.368 0.864046 22.752 1.05605 22.944C1.63205 24 2.59205 25.44 3.84005 26.784C10.272 28.992 39.072 30.144 46.656 30.24L46.848 27.84C46.848 27.744 46.848 27.744 46.944 27.648C47.04 27.648 47.04 27.552 47.04 27.456C47.04 27.552 46.944 27.36 46.752 26.976ZM29.28 21.984C19.104 21.12 21.984 21.408 15.648 20.832C15.552 20.832 15.456 20.64 15.552 20.544L20.448 16.512C20.64 16.416 20.832 16.32 21.024 16.32H28.416C28.608 16.32 28.8 16.512 28.896 16.704L29.76 21.408C29.856 21.696 29.568 21.984 29.28 21.984Z" fill="#FF0000"/>
</svg>
