<svg width="48" height="48" viewBox="0 0 48 48" fill="none" xmlns="http://www.w3.org/2000/svg">
<path d="M36.592 21C35.2881 21 36.1594 25 38.9956 25H42C41.897 23.5566 41.4375 22.1727 40.672 21H36.592Z" fill="#FF0000"/>
<path d="M24.6446 30.1106C27.8272 32.3055 30.8397 31.7742 38.0389 31.7742C39.2446 31.7729 40.411 31.335 41.3315 30.538C42.252 29.7409 42.8672 28.6361 43.0681 27.4194H38.8899C32.7543 27.4194 30.9162 18.7097 35.486 18.7097H39.7408C37.8616 17.0134 35.4387 16.0834 32.933 16.0968L32.0821 13.4839H31.2311V11.7419H40.5918C40.8175 11.7419 41.0339 11.6502 41.1935 11.4868C41.3531 11.3235 41.4428 11.102 41.4428 10.871C41.4428 10.64 41.3531 10.4184 41.1935 10.2551C41.0339 10.0918 40.8175 10 40.5918 10H20.1685C19.9428 10 19.7263 10.0918 19.5667 10.2551C19.4072 10.4184 19.3175 10.64 19.3175 10.871C19.3175 11.102 19.4072 11.3235 19.5667 11.4868C19.7263 11.6502 19.9428 11.7419 20.1685 11.7419H29.5292V13.4839H28.6782L27.8272 16.0968C26.5764 16.0141 25.3227 16.2042 24.1491 16.6547C22.9754 17.1051 21.9087 17.8056 21.0194 18.7097H9.10583L7.40389 14.3548H4V22.1935L21.0194 25.6774C21.7758 27.4877 23.0367 29.0297 24.6446 30.1106V30.1106ZM24.4233 21.3226C24.4233 20.6296 24.6923 19.965 25.1711 19.475C25.6498 18.985 26.2992 18.7097 26.9762 18.7097H28.6782C29.3553 18.7097 30.0046 18.985 30.4834 19.475C30.9621 19.965 31.2311 20.6296 31.2311 21.3226V24.8065C31.2311 25.4994 30.9621 26.164 30.4834 26.6541C30.0046 27.1441 29.3553 27.4194 28.6782 27.4194H26.9762C26.2992 27.4194 25.6498 27.1441 25.1711 26.6541C24.6923 26.164 24.4233 25.4994 24.4233 24.8065V21.3226ZM43.1447 33.5161C42.919 33.5161 42.7026 33.6079 42.543 33.7712C42.3834 33.9346 42.2937 34.1561 42.2937 34.3871C42.2937 34.6181 42.2041 34.8396 42.0445 35.003C41.8849 35.1663 41.6685 35.2581 41.4428 35.2581H38.8899V33.4552C38.3249 33.5202 37.7559 33.5406 37.1879 33.5161V35.2581H26.9762V33.0894C26.3949 32.9155 25.8262 32.7001 25.2743 32.4448V35.2581H22.7214C22.4957 35.2581 22.2792 35.1663 22.1197 35.003C21.9601 34.8396 21.8704 34.6181 21.8704 34.3871C21.8704 34.1561 21.7808 33.9346 21.6212 33.7712C21.4616 33.6079 21.2451 33.5161 21.0194 33.5161C20.7937 33.5161 20.5773 33.6079 20.4177 33.7712C20.2581 33.9346 20.1685 34.1561 20.1685 34.3871C20.1685 35.0801 20.4374 35.7447 20.9162 36.2347C21.395 36.7247 22.0443 37 22.7214 37H41.4428C43.9957 37 44.7786 33.5161 43.1447 33.5161Z" fill="#FF0000"/>
</svg>
