<svg width="54" height="56" viewBox="0 0 54 56" fill="none" xmlns="http://www.w3.org/2000/svg">
<path  d="M32.3563 17.5394L32.3684 19.9816H32.7901H33.2117L33.2238 17.5394L33.236 15.0972H32.7901H32.3442L32.3563 17.5394ZM26.7701 21.5368V22.1929H32.7666H38.7632V21.5368V20.8807H32.7666H26.7701V21.5368ZM28.1269 23.2014C28.1259 23.2482 28.1835 24.1593 28.2548 25.2262L28.3844 27.1659L28.7133 27.3239C28.8942 27.4108 29.1579 27.5588 29.2993 27.6529C29.4406 27.7469 29.5632 27.8167 29.5717 27.8079C29.5801 27.7991 29.5638 27.4479 29.5355 27.0273C29.5071 26.6067 29.49 26.2573 29.4974 26.2506C29.5047 26.244 29.693 26.2232 29.9158 26.2044L30.321 26.1703L30.3473 26.3565C30.3617 26.4589 30.3967 26.9692 30.4249 27.4905C30.4532 28.0117 30.4862 28.4877 30.4982 28.5482C30.5102 28.6088 30.6197 28.7728 30.7415 28.9129C31.3762 29.6424 31.9097 30.6798 32.1595 31.6702C32.2536 32.0434 32.3433 32.7472 32.3442 33.1198C32.345 33.4491 32.3347 33.4866 32.2081 33.6179C32.1327 33.6961 32.0376 33.76 31.9966 33.76C31.9357 33.76 31.9432 33.7945 32.0382 33.9506C32.4338 34.6008 32.4454 35.472 32.0676 36.1665C31.9622 36.3602 31.9409 36.4331 31.9897 36.4331C32.0265 36.4331 32.1216 36.4897 32.2009 36.5589L32.345 36.6847L32.3445 37.8347C32.3439 39.0857 32.3222 39.2342 32.0691 39.7191L31.9324 39.981H34.0808H36.2291L36.253 39.823C36.2754 39.6745 37.4548 23.3077 37.4525 23.1771C37.4517 23.1289 36.4874 23.1164 32.7901 23.1164C28.3826 23.1164 28.1286 23.121 28.1269 23.2014ZM30.211 24.4407C30.221 24.4742 30.2416 24.6786 30.2569 24.8952L30.2847 25.2889L29.8766 25.3188C29.6521 25.3352 29.4569 25.3367 29.4427 25.3221C29.412 25.2903 29.3569 24.5121 29.3829 24.4772C29.3929 24.4638 29.5628 24.4401 29.7604 24.4245C29.958 24.4089 30.1362 24.3925 30.1563 24.3881C30.1765 24.3836 30.2011 24.4073 30.211 24.4407ZM19.9303 27.612C17.4906 28.0165 15.5829 30.0698 15.2681 32.63L15.2367 32.8852H23.338C27.7937 32.8852 31.4504 32.8737 31.4638 32.8597C31.4773 32.8457 31.4604 32.6543 31.4263 32.4345C31.0921 30.2839 29.672 28.5411 27.6836 27.8412C26.9082 27.5683 26.9492 27.571 23.5142 27.5581C21.0111 27.5486 20.2432 27.5602 19.9303 27.612ZM21.2186 28.8756V29.313H20.797H20.3754L20.3619 28.8616L20.3484 28.4102L20.7835 28.4242L21.2186 28.4382V28.8756ZM23.7718 28.8775V29.3411L23.3619 29.327L22.952 29.313L22.9385 28.8634L22.9251 28.4139H23.3484H23.7718V28.8775ZM26.3485 28.8756V29.3373H25.9268H25.5052V28.8756V28.4139H25.9268H26.3485V28.8756ZM19.9303 30.6495V31.0869H19.5087H19.087V30.6495V30.2121H19.5087H19.9303V30.6495ZM22.5069 30.6495V31.0869H22.0853H21.6637V30.6495V30.2121H22.0853H22.5069V30.6495ZM25.0836 30.6495V31.0869H24.6619H24.2403V30.6495V30.2121H24.6619H25.0836V30.6495ZM27.6602 30.6495V31.0869H27.2152H26.7701V30.6495V30.2121H27.2152H27.6602V30.6495ZM16.1301 33.8271C15.5635 34.0372 15.2521 34.4782 15.2476 35.0771C15.2442 35.525 15.4278 35.9108 15.7685 36.1717C16.1159 36.4379 16.0555 36.4347 20.4416 36.4212L24.4874 36.4088L22.5714 35.0844L20.6553 33.76L18.4774 33.7621C16.8197 33.7638 16.2591 33.7793 16.1301 33.8271ZM22.2297 33.7777C22.2405 33.7875 23.0752 34.3661 24.0847 35.0636L25.92 36.3318L27.5983 35.0661C28.5213 34.3699 29.2853 33.7912 29.296 33.7801C29.3067 33.7691 27.7168 33.76 25.7629 33.76C23.8089 33.76 22.219 33.768 22.2297 33.7777ZM28.9519 35.136L27.2687 36.4088L28.8088 36.4216C30.6463 36.4369 30.7199 36.4243 31.1014 36.0285C31.695 35.4127 31.6184 34.5188 30.9277 33.9997C30.8234 33.9213 30.7149 33.8586 30.6866 33.8602C30.6582 33.8619 29.8776 34.436 28.9519 35.136ZM15.2476 38.122C15.2489 38.6657 15.2701 38.9953 15.3111 39.1146C15.4052 39.3878 15.6339 39.6549 15.9096 39.8133L16.159 39.9567L23.2542 39.9694C31.3342 39.984 30.6854 40.0165 31.1102 39.5751C31.4454 39.2269 31.5017 39.0078 31.5017 38.0524V37.3079H23.3736H15.2455L15.2476 38.122Z" fill="white" fill-opacity="0.15"/>
</svg>
