						<svg width="25" height="25" viewBox="0 0 25 25" fill="none" xmlns="http://www.w3.org/2000/svg">
							<path d="M19.7118 7.27965C19.7118 7.11425 19.6282 7.03156 19.5446 6.94886L12.7752 3.06202C12.6916 2.97933 12.5245 2.97933 12.3573 3.06202L5.50432 6.94886C5.42075 7.03156 5.33717 7.11425 5.33717 7.27965C5.33717 7.44505 5.42075 7.52775 5.50432 7.61045L12.2738 11.4973C12.3573 11.4973 12.4409 11.58 12.4409 11.58C12.4409 11.58 12.6081 11.58 12.6081 11.4973L19.3775 7.61045C19.6282 7.52775 19.7118 7.36235 19.7118 7.27965V7.27965ZM11.3545 13.482L4.58501 9.59521C4.41787 9.51251 4.25072 9.51251 4.16715 9.59521C4.08357 9.67791 4 9.84331 4 9.92601V17.6997C4 17.8651 4.08357 17.9478 4.16715 18.0305L10.9366 21.9173C11.0202 21.9173 11.1037 22 11.1037 22C11.1037 22 11.2709 22 11.2709 21.9173C11.3545 21.8346 11.438 21.7519 11.438 21.5865V13.8128C11.6052 13.6474 11.5216 13.5647 11.3545 13.482V13.482ZM20.8818 9.59521C20.7982 9.51251 20.6311 9.51251 20.4639 9.59521L13.6945 13.482C13.6109 13.5647 13.5274 13.6474 13.5274 13.8128V21.5865C13.5274 21.7519 13.6109 21.8346 13.6945 21.9173C13.7781 21.9173 13.8617 22 13.8617 22C13.8617 22 14.0288 22 14.0288 21.9173L20.7982 18.0305C20.8818 17.9478 20.9654 17.8651 20.9654 17.6997V9.92601C21.049 9.84331 20.9654 9.67791 20.8818 9.59521V9.59521Z" fill="white" fill-opacity="0.15"/>
						 </svg>																				