<?xml version="1.0" standalone="no"?>
<!DOCTYPE svg PUBLIC "-//W3C//DTD SVG 20010904//EN"
 "http://www.w3.org/TR/2001/REC-SVG-20010904/DTD/svg10.dtd">
<svg  version="1.0" xmlns="http://www.w3.org/2000/svg"
 width="26" height="26" viewBox="0 0 1190.000000 1280.000000"
 preserveAspectRatio="xMidYMid meet">
<g transform="translate(0.000000,1280.000000) scale(0.100000,-0.100000)"
fill="#000000" stroke="none">
<path fill="white" fill-opacity="0.15" d="M599 12685 c-776 -1291 -797 -2514 -64 -3620 240 -362 598 -736 980
-1024 50 -38 410 -292 800 -566 2778 -1949 4097 -2928 5933 -4402 l403 -324
352 344 c194 189 378 368 410 398 l58 54 -458 395 c-2818 2433 -4439 3908
-5713 5196 -1725 1746 -2573 2902 -2629 3583 l-6 76 -66 -110z m2751 -4116
c531 -487 1483 -1359 2115 -1939 633 -580 1584 -1452 2115 -1939 892 -817
1196 -1099 960 -891 -378 334 -910 795 -1540 1335 -1381 1183 -1895 1632
-2485 2170 -746 680 -1472 1398 -2010 1989 -204 224 -257 288 -174 210 30 -28
488 -449 1019 -935z m5341 -4896 c13 -16 12 -17 -3 -4 -10 7 -18 15 -18 17 0
8 8 3 21 -13z"/>
<path fill="white" fill-opacity="0.15" d="M9180 3039 c-475 -460 -488 -474 -459 -534 10 -19 27 -32 54 -41 22
-7 87 -27 145 -45 339 -105 639 -261 865 -451 145 -122 416 -403 508 -526 113
-151 237 -361 404 -687 233 -452 309 -556 484 -667 96 -61 162 -82 269 -82 89
-1 100 1 163 33 123 60 208 169 259 331 31 102 32 306 0 422 -73 270 -322 663
-676 1067 -192 220 -454 496 -623 657 -253 241 -742 730 -844 844 -51 58 -96
106 -99 108 -3 1 -205 -192 -450 -429z m713 -150 c38 -19 57 -51 57 -97 0 -37
-6 -50 -34 -78 -25 -25 -43 -34 -67 -34 -79 0 -133 72 -109 146 20 60 97 92
153 63z m763 -797 c97 -78 22 -228 -97 -193 -120 36 -92 211 34 211 25 0 51
-8 63 -18z m634 -787 c35 -18 60 -62 60 -106 0 -22 -10 -41 -34 -65 -28 -28
-42 -34 -76 -34 -80 0 -137 92 -99 161 14 26 68 59 97 59 13 0 36 -7 52 -15z"/>
</g>
</svg>
